<svg width="24" height="24" viewBox="0 0 24 24" fill="none" xmlns="http://www.w3.org/2000/svg">
<g clip-path="url(#clip0_207_42)">
<path d="M8.16999 13.003C8.40081 13.003 8.62643 12.9346 8.81835 12.8063C9.01026 12.6781 9.15983 12.4958 9.24816 12.2826C9.33649 12.0694 9.3596 11.8347 9.31457 11.6083C9.26954 11.382 9.1584 11.174 8.99519 11.0108C8.83198 10.8476 8.62404 10.7365 8.39766 10.6914C8.17129 10.6464 7.93664 10.6695 7.7234 10.7578C7.51016 10.8462 7.3279 10.9957 7.19967 11.1877C7.07144 11.3796 7.00299 11.6052 7.00299 11.836C7.00299 12.1455 7.12595 12.4423 7.3448 12.6612C7.56365 12.8801 7.86049 13.003 8.16999 13.003ZM14.67 11.836C14.67 12.0669 14.7385 12.2925 14.8667 12.4845C14.995 12.6764 15.1773 12.826 15.3906 12.9143C15.6039 13.0026 15.8386 13.0256 16.065 12.9805C16.2914 12.9354 16.4994 12.8242 16.6625 12.6608C16.8257 12.4975 16.9368 12.2895 16.9817 12.0631C17.0266 11.8366 17.0034 11.6019 16.9149 11.3887C16.8264 11.1755 16.6767 10.9933 16.4846 10.8652C16.2926 10.7371 16.0668 10.6688 15.836 10.669C15.5267 10.6693 15.2301 10.7923 15.0114 11.0112C14.7928 11.23 14.67 11.5267 14.67 11.836ZM12 23.497C14.2745 23.497 16.4979 22.8225 18.3891 21.5589C20.2802 20.2953 21.7542 18.4992 22.6246 16.3979C23.495 14.2965 23.7228 11.9843 23.279 9.75347C22.8353 7.52269 21.74 5.47359 20.1317 3.86528C18.5234 2.25698 16.4743 1.16171 14.2435 0.71798C12.0128 0.274251 9.70048 0.501989 7.59913 1.3724C5.49778 2.2428 3.70173 3.71679 2.43809 5.60795C1.17446 7.49912 0.499993 9.72253 0.499993 11.997C0.503434 15.0459 1.71614 17.969 3.87207 20.1249C6.02799 22.2809 8.95106 23.4936 12 23.497ZM12 2.49701C13.8789 2.49701 15.7156 3.05418 17.2779 4.09805C18.8402 5.14192 20.0578 6.62562 20.7768 8.36152C21.4959 10.0974 21.684 12.0075 21.3175 13.8504C20.9509 15.6932 20.0461 17.3859 18.7175 18.7145C17.3889 20.0431 15.6962 20.9479 13.8534 21.3145C12.0105 21.681 10.1004 21.4929 8.3645 20.7739C6.6286 20.0548 5.1449 18.8372 4.10103 17.2749C3.05716 15.7127 2.49999 13.8759 2.49999 11.997C2.50264 9.47827 3.50438 7.06344 5.2854 5.28242C7.06642 3.5014 9.48125 2.49966 12 2.49701Z" fill="#DBDBDB"/>
<path d="M9.76076 18.0871C10.079 17.7449 10.4642 17.4718 10.8925 17.2849C11.3208 17.0979 11.7829 17.0011 12.2502 17.0005C12.7175 16.9998 13.18 17.0953 13.6088 17.2811C14.0376 17.4668 14.4236 17.7388 14.7428 18.0801C14.9093 18.2866 15.1511 18.4184 15.4148 18.4467C15.6786 18.4749 15.9428 18.3972 16.1493 18.2306C16.3557 18.064 16.4876 17.8223 16.5158 17.5585C16.544 17.2948 16.4663 17.0306 16.2998 16.8241C15.7933 16.2507 15.1708 15.7916 14.4734 15.4771C13.776 15.1626 13.0198 15 12.2548 15C11.4898 15 10.7335 15.1626 10.0361 15.4771C9.33875 15.7916 8.7162 16.2507 8.20976 16.8241C8.0498 17.0304 7.97684 17.291 8.00647 17.5504C8.0361 17.8097 8.16596 18.0472 8.36832 18.2121C8.57069 18.377 8.8295 18.4562 9.08949 18.4329C9.34948 18.4095 9.59003 18.2854 9.75976 18.0871L9.76076 18.0871Z" fill="#DBDBDB"/>
</g>
<defs>
<clipPath id="clip0_207_42">
<rect width="24" height="24" fill="white" transform="translate(24 24) rotate(180)"/>
</clipPath>
</defs>
</svg>
