<svg width="438" height="124" viewBox="0 0 438 124" fill="none" xmlns="http://www.w3.org/2000/svg">
<path d="M22.5361 0.434777C13.5739 4.17973 3.72144 14.7597 0.609722 28.0398C-3.33103 44.8663 13.0683 51.9816 14.4133 49.6486C15.9965 46.9072 11.4748 45.9802 10.544 37.2499C9.34109 25.9739 14.5924 13.3743 21.2013 7.84592C22.4297 6.81881 22.3713 8.24838 22.3713 10.8927C22.3713 15.6212 22.1096 58.0699 22.1096 66.929C22.1096 78.9165 21.6136 82.7019 20.7228 86.4423C19.8202 90.2329 18.3692 92.7942 19.4687 93.7808C20.6972 94.8844 25.9421 92.2593 28.9784 88.0289C32.6195 82.9551 33.894 76.8617 34.1228 70.2445C34.3992 62.2675 34.3874 49.6099 34.3992 42.39C34.4103 35.7683 34.5109 16.3786 34.2829 4.72215C34.227 1.86307 26.2841 -1.13652 22.5356 0.431299L22.5361 0.434777ZM340.783 56.5352C340.494 62.7671 339.112 67.6383 337.397 71.0741C334.077 77.7258 327.187 79.7912 324.262 70.2292C322.668 65.017 322.593 56.312 323.739 49.0384C324.906 41.6287 328.164 36.0327 333.558 36.5373C338.878 37.0362 341.369 43.8801 340.783 56.5349V56.5352ZM251.088 95.1999C251.015 105.555 249.383 114.634 245.882 117.271C240.917 121.01 234.243 118.205 235.625 110.649C236.848 103.963 242.63 97.1342 251.102 88.7908C251.102 88.7908 251.119 90.6935 251.088 95.1999H251.088ZM249.732 56.4748C249.428 62.1509 247.954 67.8531 246.346 71.0749C243.026 77.7265 236.086 79.806 233.21 70.23C231.244 63.6873 231.715 55.2193 232.688 49.8838C233.95 42.9611 237.011 36.5388 242.507 36.5388C247.85 36.5388 250.485 42.3909 249.732 56.4753V56.4748ZM197.771 56.388C197.445 62.3996 196.27 67.4249 194.385 71.0749C190.974 77.6808 184.226 79.7758 181.25 70.23C179.105 63.3468 179.835 53.9612 180.727 48.8912C182.052 41.3675 185.368 36.0334 190.546 36.5388C195.864 37.0575 198.45 43.8808 197.771 56.3885V56.388ZM435.894 63.4098C434.594 63.4098 434.001 64.7476 433.51 66.9994C431.807 74.8292 430.018 76.5971 427.71 76.5971C425.132 76.5971 422.816 72.7202 422.22 64.9592C421.752 58.8566 421.828 47.6214 422.426 36.4455C422.548 34.1492 421.914 31.8773 415.744 29.6399C413.089 28.6775 409.23 27.2605 407.309 31.8905C401.88 44.9712 399.756 55.3563 399.256 59.575C399.23 59.7934 398.962 59.838 398.915 59.3278C398.597 55.9489 397.885 49.8088 397.796 36.9083C397.779 34.3913 397.245 32.2488 394.462 30.4948C392.656 29.3566 387.173 27.3436 385.198 29.7384C383.488 31.697 381.507 36.9678 379.448 43.2158C377.775 48.2939 376.61 51.7291 376.61 51.7291C376.61 51.7291 376.632 38.0273 376.652 32.83C376.661 30.8693 375.314 30.216 374.907 30.0975C373.079 29.5677 369.476 28.6827 367.947 28.6827C366.06 28.6827 365.598 29.7355 365.598 31.2696C365.598 31.4704 365.3 49.3092 365.3 61.783C365.3 62.3248 365.3 62.9159 365.306 63.5439C364.262 69.277 360.878 77.0595 357.197 77.0595C353.512 77.0595 351.774 73.8058 351.774 58.9352C351.774 50.2601 352.034 46.4879 352.163 40.2135C352.237 36.5996 352.381 33.8243 352.373 33.1945C352.346 31.2632 349 30.2898 347.444 29.9301C345.88 29.5673 344.521 29.4268 343.459 29.4871C341.957 29.5717 340.894 30.5554 340.894 31.9084C340.894 32.6339 340.903 34.0134 340.903 34.0134C338.968 30.9785 335.856 28.8661 333.786 28.254C328.21 26.6008 322.391 28.0656 318.002 34.1966C314.514 39.068 312.411 44.5853 311.583 52.5122C310.978 58.3074 311.176 64.184 312.251 69.1539C310.952 74.7619 308.54 77.0595 305.898 77.0595C302.063 77.0595 299.283 70.8112 299.606 60.005C299.819 52.8973 301.244 47.9094 302.801 40.6932C303.465 37.6171 302.926 36.0065 301.573 34.4629C300.331 33.0474 297.687 32.3242 293.885 33.2137C291.178 33.8479 287.306 34.5299 283.764 35.0537C283.764 35.0537 283.978 34.2025 284.153 32.7016C285.074 24.8306 276.507 25.4692 273.773 27.9832C272.141 29.4842 271.03 31.2544 270.609 34.4372C269.94 39.4881 274.067 41.8704 274.067 41.8704C272.713 48.0573 269.394 56.1394 265.968 61.9826C264.133 65.1133 262.729 67.4332 260.916 69.8992C260.91 68.981 260.905 68.0628 260.901 67.1488C260.86 54.1416 261.033 43.9045 261.11 40.2147C261.184 36.6008 261.33 33.8991 261.322 33.2694C261.301 31.8567 260.475 31.3233 258.756 30.6479C257.236 30.0505 255.439 29.637 253.575 29.4928C251.223 29.3096 249.806 30.5552 249.842 32.0282C249.85 32.3063 249.85 34.0139 249.85 34.0139C247.915 30.979 244.803 28.8667 242.733 28.2545C237.157 26.602 231.338 28.0669 226.949 34.1971C223.461 39.0685 221.177 45.9043 220.53 52.4524C219.927 58.5553 220.039 63.7416 220.86 68.1104C219.974 72.4852 217.425 77.06 214.542 77.06C210.857 77.06 208.76 73.8063 208.76 58.9358C208.76 50.2606 209.021 46.4885 209.149 40.2147C209.224 36.6008 209.367 33.8249 209.359 33.1958C209.332 31.2645 205.987 30.2911 204.43 29.9306C202.801 29.5546 201.395 29.4163 200.315 29.4957C198.891 29.6017 197.889 30.8753 197.889 31.8251V34.0139C195.954 30.979 192.843 28.8667 190.772 28.2545C185.196 26.602 179.41 28.0905 174.988 34.1971C172.105 38.179 169.771 42.5934 168.57 52.3656C168.223 55.1895 168.069 57.834 168.089 60.3057C166.939 67.3249 161.861 75.4149 157.708 75.4149C155.277 75.4149 152.962 70.7085 152.962 60.678C152.962 47.3169 153.79 28.2935 153.93 26.4601C153.93 26.4601 159.179 26.3711 160.195 26.3592C162.813 26.3305 165.184 26.3924 168.671 26.2143C170.42 26.1253 172.104 19.8597 170.3 19.0843C169.481 18.7333 163.7 18.4258 161.407 18.3772C159.48 18.3336 154.115 17.9372 154.115 17.9372C154.115 17.9372 154.596 5.31038 154.708 3.97651C154.803 2.86479 153.362 2.29241 152.536 1.94509C150.527 1.0968 148.729 0.690643 146.599 0.252148C143.655 -0.354074 142.319 0.238903 142.058 2.71909C141.666 6.48319 141.462 17.5083 141.462 17.5083C139.302 17.5083 131.923 17.0867 129.762 17.0867C127.754 17.0867 125.588 25.7059 128.363 25.8119C131.557 25.9355 137.122 26.0422 140.811 26.1533C140.811 26.1533 140.647 45.49 140.647 51.4599C140.647 52.095 140.653 52.7066 140.654 53.3001C138.623 63.8654 131.471 69.5725 131.471 69.5725C133.007 62.583 129.87 57.3342 124.218 52.891C122.136 51.2537 118.026 48.1541 113.427 44.7574C113.427 44.7574 116.09 42.1367 118.453 36.8644C120.126 33.1297 120.199 28.8558 116.09 27.9133C109.302 26.355 103.706 31.3315 102.036 36.6444C100.743 40.7601 101.433 43.8142 103.966 46.9867C104.151 47.2185 104.352 47.4554 104.559 47.6937C103.027 50.642 100.922 54.6113 99.1389 57.6895C94.1906 66.2359 90.4524 72.9959 87.6274 72.9959C85.3692 72.9959 85.3994 66.1328 85.3994 59.7069C85.3994 54.1673 85.8092 45.8389 86.1365 37.216C86.2448 34.3643 84.8164 32.7397 82.4219 31.2683C80.967 30.3744 77.8619 28.6167 76.0636 28.6167C73.3719 28.6167 65.6061 28.9823 58.2683 50.171C57.3436 52.8416 55.5269 57.7079 55.5269 57.7079L55.6833 32.2277C55.6833 31.6303 55.3645 31.0527 54.6348 30.6576C53.3983 29.9874 50.0957 28.6167 47.1592 28.6167C45.76 28.6167 45.0618 29.2663 45.0618 30.5612L44.8057 70.4253C44.8057 73.4542 44.8848 76.9877 45.1848 78.5331C45.4837 80.0805 45.9679 81.3393 46.5676 82.0883C47.1664 82.8358 47.8591 83.406 49.0011 83.6414C50.0641 83.8598 55.8845 84.6059 56.1871 82.3855C56.5495 79.7244 56.5634 76.8462 59.6197 66.1116C64.3778 49.3992 70.5814 41.2449 73.4977 38.3491C74.0077 37.8429 74.5899 37.8127 74.5619 38.6411C74.4374 42.3052 73.9995 51.4607 73.7048 59.239C72.9148 80.0547 76.7081 83.9129 82.1289 83.9129C86.2761 83.9129 92.1222 79.7993 98.389 69.3864C102.296 62.8972 106.089 56.5344 108.815 51.9485C110.714 53.7037 112.846 55.5928 114.976 57.6109C119.925 62.3007 121.551 66.7569 120.472 70.9845C119.648 74.2163 116.542 77.5469 111.014 74.3097C109.403 73.3652 108.715 72.6356 107.095 71.5708C106.225 70.9988 104.896 70.8278 104.099 71.427C102.03 72.9848 100.846 74.9661 100.17 77.4191C99.513 79.8059 101.908 81.0676 104.39 82.1712C106.527 83.1211 111.121 83.9818 114.051 84.0798C125.466 84.4609 134.61 78.5779 140.975 63.4025C142.115 76.5083 146.964 83.9246 155.39 83.9246C161.023 83.9246 166.671 76.656 169.141 69.5055C169.85 72.4203 170.899 74.9549 172.254 77.0983C178.747 87.3671 191.342 85.1569 197.668 76.4371C199.624 73.7427 199.922 72.7745 199.922 72.7745C200.845 81.0081 207.487 83.8849 211.29 83.8849C215.549 83.8849 219.947 81.8749 223.029 74.9479C223.39 75.6996 223.785 76.4175 224.215 77.0981C230.707 87.3669 243.302 85.1567 249.629 76.4369C249.927 76.0278 250.186 75.6568 250.412 75.3238L250.598 80.732C250.598 80.732 246.989 84.0371 244.773 86.0647C235.023 94.9952 227.608 101.771 227.063 109.661C226.363 119.721 234.536 123.46 240.72 123.95C247.287 124.471 252.91 120.849 256.367 115.781C259.407 111.321 261.397 101.72 261.251 92.2376C261.193 88.4405 261.097 83.6125 261.022 78.4373C264.449 74.4643 268.31 69.4428 271.865 63.565C275.74 57.1594 279.892 48.5573 282.019 41.8628C282.019 41.8628 285.626 41.8937 289.477 41.642C290.708 41.5619 291.062 41.8127 290.834 42.714C290.559 43.8029 285.97 61.474 290.158 73.2459C293.025 81.3045 299.488 83.8972 303.32 83.8972C307.805 83.8972 312.096 80.5157 314.396 75.4943C314.673 76.0541 314.963 76.5958 315.279 77.0959C321.771 87.3647 334.322 85.1413 340.693 76.4347C342.131 74.4703 342.946 72.772 342.946 72.772C344.314 81.2934 350.952 83.9259 354.754 83.9259C358.715 83.9259 362.474 82.305 365.524 75.1014C365.651 78.2731 365.852 80.8666 366.168 81.6843C366.362 82.1843 367.487 82.8121 368.306 83.1152C371.929 84.4565 375.624 83.8222 376.992 83.5463C377.939 83.355 378.677 82.5965 378.778 80.6379C379.043 75.4951 378.881 66.8544 380.442 60.4329C383.064 49.6557 385.509 45.4753 386.669 43.4056C387.319 42.2461 388.051 42.0548 388.078 43.282C388.133 45.7651 388.256 53.0571 389.272 62.8542C390.018 70.0597 391.014 74.3186 391.78 75.6665C393.965 79.521 396.664 79.7035 398.862 79.7035C400.26 79.7035 403.184 79.3178 402.922 76.8649C402.795 75.6693 403.018 68.2803 405.603 57.6628C407.29 50.7292 410.104 44.4643 411.119 42.1739C411.494 41.3293 411.668 41.9951 411.662 42.1248C411.448 46.8998 410.968 62.5182 412.917 71.0601C415.558 82.6319 423.2 83.9268 425.862 83.9268C431.547 83.9268 436.196 79.61 437.762 68.2518C438.14 65.5184 437.581 63.4077 435.907 63.4077" fill="#212020"/>
</svg>
